<?xml version="1.0" encoding="utf-8"?>
<svg xmlns="http://www.w3.org/2000/svg"
	xmlns:xlink="http://www.w3.org/1999/xlink"
	width="6px" height="11px" viewBox="0 0 6 11">
<path fillRule="evenodd" d="M 3.87 11C 3.87 11 1.55 11 1.55 11 1.55 11 1.55 5.5 1.55 5.5 1.55 5.5-0 5.5-0 5.5-0 5.5-0 3.6-0 3.6-0 3.6 1.55 3.6 1.55 3.6 1.55 3.6 1.55 2.49 1.55 2.49 1.55 0.94 2.02-0 4.07-0 4.07-0 5.78-0 5.78-0 5.78-0 5.78 1.9 5.78 1.9 5.78 1.9 4.71 1.9 4.71 1.9 3.91 1.9 3.87 2.16 3.87 2.66 3.87 2.66 3.87 3.6 3.87 3.6 3.87 3.6 5.79 3.6 5.79 3.6 5.79 3.6 5.56 5.5 5.56 5.5 5.56 5.5 3.87 5.5 3.87 5.5 3.87 5.5 3.87 11 3.87 11Z" fill="rgb(51,63,75)"/></svg>