<?xml version="1.0" encoding="utf-8"?>
<svg xmlns="http://www.w3.org/2000/svg"
	xmlns:xlink="http://www.w3.org/1999/xlink"
	width="14px" height="11px" viewBox="0 0 14 11">
<path fillRule="evenodd" d="M 7.63-0C 7.63-0 5.21-0 4.41-0 2.97-0 1.61 1.16 1.61 2.5 1.61 3.87 2.59 4.97 4.06 4.97 4.16 4.97 4.26 4.97 4.36 4.96 4.26 5.16 4.19 5.37 4.19 5.6 4.19 5.98 4.39 6.29 4.63 6.54 4.45 6.54 4.27 6.55 4.07 6.55 2.29 6.55 0.91 7.75 0.91 9 0.91 10.23 2.42 11 4.21 11 6.25 11 7.37 9.78 7.37 8.55 7.37 7.56 7.1 6.97 6.25 6.33 5.95 6.11 5.4 5.58 5.4 5.27 5.4 4.91 5.5 4.73 6.02 4.3 6.55 3.86 6.93 3.24 6.93 2.52 6.93 1.66 6.56 0.83 5.89 0.55 5.89 0.55 6.91 0.55 6.91 0.55 6.91 0.55 7.63-0 7.63-0ZM 6.5 8.33C 6.53 8.45 6.54 8.56 6.54 8.69 6.54 9.68 5.94 10.46 4.2 10.46 2.96 10.46 2.07 9.63 2.07 8.63 2.07 7.66 3.18 6.85 4.42 6.86 4.7 6.87 4.97 6.91 5.22 7 5.89 7.49 6.37 7.77 6.5 8.33ZM 4.53 4.62C 3.7 4.6 2.91 3.64 2.76 2.49 2.62 1.34 3.18 0.46 4.01 0.48 4.84 0.51 5.62 1.43 5.77 2.59 5.91 3.74 5.35 4.65 4.53 4.62ZM 10.91 2.44C 10.91 2.44 10.91-0 10.91-0 10.91-0 10.14-0 10.14-0 10.14-0 10.14 2.44 10.14 2.44 10.14 2.44 7.83 2.44 7.83 2.44 7.83 2.44 7.83 3.25 7.83 3.25 7.83 3.25 10.14 3.25 10.14 3.25 10.14 3.25 10.14 5.7 10.14 5.7 10.14 5.7 10.91 5.7 10.91 5.7 10.91 5.7 10.91 3.25 10.91 3.25 10.91 3.25 13.22 3.25 13.22 3.25 13.22 3.25 13.22 2.44 13.22 2.44 13.22 2.44 10.91 2.44 10.91 2.44Z" fill="rgb(51,63,75)"/></svg>