<?xml version="1.0" encoding="utf-8"?>
<svg xmlns="http://www.w3.org/2000/svg"
	xmlns:xlink="http://www.w3.org/1999/xlink"
	width="11px" height="11px" viewBox="0 0 11 11">
<path fillRule="evenodd" d="M 9.2-0C 9.2-0 1.94-0 1.94-0 0.95-0 0.14 0.82 0.14 1.83 0.14 1.83 0.14 9.17 0.14 9.17 0.14 10.18 0.95 11 1.94 11 1.94 11 9.2 11 9.2 11 10.19 11 11 10.18 11 9.17 11 9.17 11 1.83 11 1.83 11 0.82 10.19-0 9.2-0ZM 3.62 4.81C 3.62 4.81 7.52 4.81 7.52 4.81 7.6 5.03 7.64 5.26 7.64 5.5 7.64 6.65 6.71 7.59 5.57 7.59 4.43 7.59 3.5 6.65 3.5 5.5 3.5 5.26 3.54 5.03 3.62 4.81ZM 9.64 4.81C 9.64 4.81 9.64 7.56 9.64 7.56 9.64 7.56 9.64 8.94 9.64 8.94 9.64 9.32 9.34 9.62 8.96 9.62 8.96 9.62 2.18 9.62 2.18 9.62 1.8 9.62 1.5 9.32 1.5 8.94 1.5 8.94 1.5 7.56 1.5 7.56 1.5 7.56 1.5 4.81 1.5 4.81 1.5 4.81 1.5 4.81 1.5 4.81 1.5 4.81 2.56 4.81 2.56 4.81 2.51 5.03 2.49 5.26 2.49 5.5 2.49 7.22 3.87 8.63 5.57 8.63 7.27 8.63 8.66 7.22 8.66 5.5 8.66 5.26 8.63 5.03 8.58 4.81 8.58 4.81 9.64 4.81 9.64 4.81 9.64 4.81 9.64 4.81 9.64 4.81ZM 9.64 2.41C 9.64 2.59 9.49 2.75 9.3 2.75 9.3 2.75 8.62 2.75 8.62 2.75 8.44 2.75 8.29 2.59 8.29 2.41 8.29 2.41 8.29 1.72 8.29 1.72 8.29 1.53 8.44 1.37 8.62 1.37 8.62 1.37 9.3 1.37 9.3 1.37 9.49 1.37 9.64 1.53 9.64 1.72 9.64 1.72 9.64 2.41 9.64 2.41Z" fill="rgb(51,63,75)"/></svg>