<?xml version="1.0" encoding="utf-8"?>
<svg xmlns="http://www.w3.org/2000/svg"
	xmlns:xlink="http://www.w3.org/1999/xlink"
	width="14px" height="11px" viewBox="0 0 14 11">
<path fillRule="evenodd" d="M 13.54 1.3C 13.06 1.52 12.54 1.67 12 1.74 12.55 1.4 12.98 0.85 13.18 0.2 12.66 0.52 12.09 0.75 11.48 0.88 10.99 0.34 10.3-0 9.53-0 8.05-0 6.86 1.24 6.86 2.78 6.86 2.99 6.88 3.21 6.92 3.41 4.7 3.29 2.73 2.19 1.41 0.51 1.18 0.92 1.05 1.39 1.05 1.9 1.05 2.87 1.52 3.72 2.24 4.22 1.8 4.2 1.39 4.08 1.03 3.87 1.03 3.88 1.03 3.89 1.03 3.9 1.03 5.25 1.95 6.37 3.18 6.63 2.95 6.69 2.71 6.72 2.47 6.72 2.3 6.72 2.13 6.71 1.97 6.67 2.31 7.78 3.3 8.58 4.46 8.6 3.55 9.35 2.4 9.79 1.14 9.79 0.93 9.79 0.72 9.78 0.51 9.75 1.69 10.54 3.1 11 4.61 11 9.52 11 12.21 6.77 12.21 3.1 12.21 2.98 12.21 2.86 12.2 2.74 12.73 2.35 13.18 1.86 13.54 1.3Z" fill="rgb(51,63,75)"/></svg>